<svg width="1600" height="900" viewBox="0 0 1600 900" fill="none" xmlns="http://www.w3.org/2000/svg">
  <defs>
    <linearGradient id="bg" x1="140" y1="100" x2="1460" y2="820" gradientUnits="userSpaceOnUse">
      <stop stop-color="#091224"/>
      <stop offset="1" stop-color="#050A13"/>
    </linearGradient>
    <linearGradient id="tick" x1="330" y1="245" x2="430" y2="690" gradientUnits="userSpaceOnUse">
      <stop stop-color="#2F8CFF"/>
      <stop offset="1" stop-color="#52D4FF"/>
    </linearGradient>
  </defs>
  <rect width="1600" height="900" rx="34" fill="url(#bg)"/>
  <circle cx="1280" cy="140" r="220" fill="#2F8CFF" opacity="0.13"/>
  <rect x="250" y="120" width="1100" height="660" rx="34" fill="#0B1222" stroke="#24324A" stroke-width="4"/>
  <rect x="320" y="230" width="960" height="90" rx="16" fill="#111C33"/>
  <rect x="320" y="360" width="960" height="90" rx="16" fill="#111C33"/>
  <rect x="320" y="490" width="960" height="90" rx="16" fill="#111C33"/>
  <rect x="320" y="620" width="960" height="90" rx="16" fill="#111C33"/>
  <circle cx="390" cy="275" r="26" fill="url(#tick)"/>
  <circle cx="390" cy="405" r="26" fill="url(#tick)"/>
  <circle cx="390" cy="535" r="26" fill="url(#tick)"/>
  <circle cx="390" cy="665" r="26" fill="url(#tick)"/>
  <path d="M378 275L388 286L405 264" stroke="#D8F5FF" stroke-width="5" stroke-linecap="round" stroke-linejoin="round"/>
  <path d="M378 405L388 416L405 394" stroke="#D8F5FF" stroke-width="5" stroke-linecap="round" stroke-linejoin="round"/>
  <path d="M378 535L388 546L405 524" stroke="#D8F5FF" stroke-width="5" stroke-linecap="round" stroke-linejoin="round"/>
  <path d="M378 665L388 676L405 654" stroke="#D8F5FF" stroke-width="5" stroke-linecap="round" stroke-linejoin="round"/>
  <rect x="470" y="259" width="460" height="32" rx="16" fill="#1A2A46"/>
  <rect x="470" y="389" width="510" height="32" rx="16" fill="#1A2A46"/>
  <rect x="470" y="519" width="430" height="32" rx="16" fill="#1A2A46"/>
  <rect x="470" y="649" width="480" height="32" rx="16" fill="#1A2A46"/>
</svg>
