<svg width="1600" height="900" viewBox="0 0 1600 900" fill="none" xmlns="http://www.w3.org/2000/svg">
  <defs>
    <linearGradient id="bg" x1="120" y1="90" x2="1500" y2="820" gradientUnits="userSpaceOnUse">
      <stop stop-color="#0A1328"/>
      <stop offset="1" stop-color="#060A14"/>
    </linearGradient>
    <linearGradient id="accent" x1="240" y1="620" x2="1280" y2="330" gradientUnits="userSpaceOnUse">
      <stop stop-color="#2F8CFF"/>
      <stop offset="1" stop-color="#52D4FF"/>
    </linearGradient>
  </defs>
  <rect width="1600" height="900" rx="34" fill="url(#bg)"/>
  <circle cx="1260" cy="130" r="260" fill="#2F8CFF" opacity="0.16"/>
  <circle cx="260" cy="780" r="320" fill="#52D4FF" opacity="0.1"/>
  <rect x="130" y="150" width="1340" height="600" rx="30" fill="#0C1222" stroke="#26334C" stroke-width="4"/>
  <path d="M240 240V660" stroke="#1A2740" stroke-width="4"/>
  <path d="M240 660H1360" stroke="#1A2740" stroke-width="4"/>
  <path d="M300 575L520 520L760 470L980 410L1260 320" stroke="url(#accent)" stroke-width="12" stroke-linecap="round"/>
  <circle cx="300" cy="575" r="14" fill="#2F8CFF"/>
  <circle cx="520" cy="520" r="14" fill="#2F8CFF"/>
  <circle cx="760" cy="470" r="14" fill="#52D4FF"/>
  <circle cx="980" cy="410" r="14" fill="#52D4FF"/>
  <circle cx="1260" cy="320" r="14" fill="#88E8FF"/>
  <rect x="280" y="278" width="190" height="26" rx="13" fill="#0F1A30"/>
  <rect x="280" y="312" width="340" height="20" rx="10" fill="#101D36"/>
</svg>
