<svg width="1600" height="900" viewBox="0 0 1600 900" fill="none" xmlns="http://www.w3.org/2000/svg">
  <defs>
    <linearGradient id="g4" x1="160" y1="130" x2="1440" y2="770" gradientUnits="userSpaceOnUse">
      <stop stop-color="#FFC18B"/>
      <stop offset="0.52" stop-color="#F15A24"/>
      <stop offset="1" stop-color="#D93D2F"/>
    </linearGradient>
  </defs>
  <rect width="1600" height="900" rx="34" fill="#FFF7F0"/>
  <rect x="122" y="130" width="1356" height="644" rx="30" fill="#FFFFFF" stroke="#F0D7C8" stroke-width="4"/>
  <path d="M220 260H1380" stroke="#F2DECF" stroke-width="4"/>
  <path d="M220 360H1380" stroke="#F2DECF" stroke-width="4"/>
  <path d="M220 460H1380" stroke="#F2DECF" stroke-width="4"/>
  <path d="M220 560H1380" stroke="#F2DECF" stroke-width="4"/>
  <path d="M320 200V700" stroke="#F2DECF" stroke-width="4"/>
  <path d="M520 200V700" stroke="#F2DECF" stroke-width="4"/>
  <path d="M720 200V700" stroke="#F2DECF" stroke-width="4"/>
  <path d="M920 200V700" stroke="#F2DECF" stroke-width="4"/>
  <path d="M1120 200V700" stroke="#F2DECF" stroke-width="4"/>
  <path d="M1320 200V700" stroke="#F2DECF" stroke-width="4"/>
  <circle cx="770" cy="430" r="160" fill="url(#g4)"/>
  <path d="M770 338C737 338 710 365 710 398C710 449 770 528 770 528C770 528 830 449 830 398C830 365 803 338 770 338Z" fill="#FFF5EC"/>
  <circle cx="770" cy="398" r="26" fill="#D93D2F"/>
  <text x="180" y="732" fill="#6B3121" font-family="Sora, Arial" font-size="52" font-weight="700">Local SEO</text>
  <text x="180" y="788" fill="#8E5C43" font-family="Sora, Arial" font-size="34">London Agency Pipeline</text>
</svg>
