<svg width="1600" height="900" viewBox="0 0 1600 900" fill="none" xmlns="http://www.w3.org/2000/svg">
  <defs>
    <linearGradient id="bg" x1="130" y1="100" x2="1470" y2="820" gradientUnits="userSpaceOnUse">
      <stop stop-color="#0A1327"/>
      <stop offset="1" stop-color="#050A14"/>
    </linearGradient>
    <linearGradient id="pin" x1="650" y1="300" x2="930" y2="560" gradientUnits="userSpaceOnUse">
      <stop stop-color="#2F8CFF"/>
      <stop offset="1" stop-color="#52D4FF"/>
    </linearGradient>
  </defs>
  <rect width="1600" height="900" rx="34" fill="url(#bg)"/>
  <rect x="122" y="130" width="1356" height="644" rx="30" fill="#0B1223" stroke="#24324A" stroke-width="4"/>
  <path d="M220 260H1380" stroke="#1D2A43" stroke-width="4"/>
  <path d="M220 360H1380" stroke="#1D2A43" stroke-width="4"/>
  <path d="M220 460H1380" stroke="#1D2A43" stroke-width="4"/>
  <path d="M220 560H1380" stroke="#1D2A43" stroke-width="4"/>
  <path d="M320 200V700" stroke="#1D2A43" stroke-width="4"/>
  <path d="M520 200V700" stroke="#1D2A43" stroke-width="4"/>
  <path d="M720 200V700" stroke="#1D2A43" stroke-width="4"/>
  <path d="M920 200V700" stroke="#1D2A43" stroke-width="4"/>
  <path d="M1120 200V700" stroke="#1D2A43" stroke-width="4"/>
  <path d="M1320 200V700" stroke="#1D2A43" stroke-width="4"/>
  <circle cx="770" cy="430" r="165" fill="#2F8CFF" opacity="0.18"/>
  <circle cx="770" cy="430" r="116" fill="#2F8CFF" opacity="0.16"/>
  <path d="M770 338C737 338 710 365 710 398C710 449 770 528 770 528C770 528 830 449 830 398C830 365 803 338 770 338Z" fill="url(#pin)"/>
  <circle cx="770" cy="398" r="26" fill="#D8F5FF"/>
</svg>
