<svg width="1600" height="980" viewBox="0 0 1600 980" fill="none" xmlns="http://www.w3.org/2000/svg">
  <defs>
    <linearGradient id="sky" x1="800" y1="120" x2="800" y2="900" gradientUnits="userSpaceOnUse">
      <stop stop-color="#A0A0A0"/>
      <stop offset="1" stop-color="#4E4E4E"/>
    </linearGradient>
  </defs>
  <rect width="1600" height="980" fill="#0E0E0E"/>
  <rect y="120" width="1600" height="860" fill="url(#sky)" opacity="0.95"/>
  <ellipse cx="880" cy="760" rx="740" ry="120" fill="#676767" opacity="0.35"/>
  <rect x="180" y="520" width="50" height="200" fill="#5B5B5B"/>
  <rect x="250" y="480" width="70" height="240" fill="#606060"/>
  <rect x="340" y="430" width="70" height="290" fill="#565656"/>
  <rect x="430" y="390" width="85" height="330" fill="#5E5E5E"/>
  <rect x="535" y="470" width="75" height="250" fill="#575757"/>
  <rect x="635" y="330" width="95" height="390" fill="#535353"/>
  <rect x="752" y="270" width="88" height="450" fill="#4F4F4F"/>
  <rect x="862" y="350" width="76" height="370" fill="#595959"/>
  <rect x="955" y="420" width="72" height="300" fill="#5E5E5E"/>
  <rect x="1045" y="380" width="86" height="340" fill="#5A5A5A"/>
  <rect x="1148" y="440" width="78" height="280" fill="#5F5F5F"/>
  <rect x="1240" y="510" width="65" height="210" fill="#636363"/>
  <rect x="1320" y="460" width="62" height="260" fill="#5D5D5D"/>
  <ellipse cx="430" cy="270" rx="160" ry="52" fill="#D9D9D9" opacity="0.55"/>
  <ellipse cx="820" cy="230" rx="200" ry="68" fill="#E0E0E0" opacity="0.52"/>
  <ellipse cx="1210" cy="285" rx="180" ry="56" fill="#D5D5D5" opacity="0.5"/>
</svg>
