<svg width="1600" height="980" viewBox="0 0 1600 980" fill="none" xmlns="http://www.w3.org/2000/svg">
  <defs>
    <linearGradient id="bg" x1="800" y1="120" x2="800" y2="920" gradientUnits="userSpaceOnUse">
      <stop stop-color="#D8D8D8"/>
      <stop offset="1" stop-color="#6A6A6A"/>
    </linearGradient>
    <linearGradient id="fog" x1="800" y1="140" x2="800" y2="820" gradientUnits="userSpaceOnUse">
      <stop stop-color="#F4F4F4" stop-opacity="0.74"/>
      <stop offset="1" stop-color="#8F8F8F" stop-opacity="0"/>
    </linearGradient>
  </defs>
  <rect width="1600" height="980" fill="#0D0D0D"/>
  <rect x="96" y="92" width="1408" height="796" fill="url(#bg)"/>
  <rect x="96" y="92" width="1408" height="796" fill="#000000" fill-opacity="0.12"/>
  <ellipse cx="560" cy="260" rx="360" ry="95" fill="#FFFFFF" fill-opacity="0.42"/>
  <ellipse cx="1110" cy="300" rx="260" ry="78" fill="#FFFFFF" fill-opacity="0.34"/>
  <ellipse cx="300" cy="360" rx="220" ry="68" fill="#FFFFFF" fill-opacity="0.30"/>
  <rect x="200" y="640" width="1200" height="180" fill="#5A5A5A" fill-opacity="0.65"/>
  <rect x="260" y="510" width="88" height="310" fill="#4D4D4D"/>
  <rect x="380" y="420" width="130" height="400" fill="#585858"/>
  <rect x="540" y="360" width="140" height="460" fill="#4E4E4E"/>
  <rect x="710" y="300" width="164" height="520" fill="#5A5A5A"/>
  <rect x="902" y="380" width="118" height="440" fill="#505050"/>
  <rect x="1048" y="470" width="126" height="350" fill="#565656"/>
  <rect x="1204" y="540" width="96" height="280" fill="#4F4F4F"/>
  <rect x="96" y="92" width="1408" height="796" fill="url(#fog)"/>
  <rect x="96" y="92" width="1408" height="796" fill="url(#scan)"/>
  <defs>
    <pattern id="scan" width="6" height="6" patternUnits="userSpaceOnUse">
      <rect width="6" height="1" fill="#FFFFFF" fill-opacity="0.05"/>
    </pattern>
  </defs>
</svg>
